<svg width="16" height="16" viewBox="0 0 24 16" fill="none" xmlns="http://www.w3.org/2000/svg">
<g clip-path="url(#clip0_2139_224385)">
<path d="M16 0H8C5.79086 0 4 1.79086 4 4V12C4 14.2091 5.79086 16 8 16H16C18.2091 16 20 14.2091 20 12V4C20 1.79086 18.2091 0 16 0Z" fill="url(#paint0_linear_2139_224385)"/>
<path d="M12.4068 5.29752C13.1768 5.30022 13.9213 5.57428 14.5092 6.07152C14.5702 6.12685 14.65 6.15679 14.7323 6.15523C14.8146 6.15367 14.8932 6.12072 14.952 6.06312L15.552 5.45352C15.5824 5.42336 15.6063 5.38724 15.6221 5.34741C15.6379 5.30759 15.6453 5.26493 15.6439 5.22211C15.6424 5.17929 15.6321 5.13723 15.6136 5.09858C15.5951 5.05993 15.5688 5.02552 15.5364 4.99752C15.0614 4.5936 14.5124 4.28589 13.92 4.09152L14.1096 3.19512C14.1191 3.1492 14.1182 3.10175 14.107 3.05623C14.0958 3.0107 14.0746 2.96823 14.045 2.93192C14.0153 2.89561 13.9779 2.86635 13.9356 2.84629C13.8932 2.82622 13.8469 2.81585 13.8 2.81592H12.6288C12.5563 2.81586 12.486 2.84058 12.4294 2.88598C12.3729 2.93137 12.3336 2.99472 12.318 3.06552L12.1476 3.86232C10.5876 3.93912 9.26761 4.70952 9.26761 6.28872C9.26761 7.65552 10.3584 8.24112 11.5116 8.64672C12.6024 9.05232 13.1784 9.20232 13.1784 9.77352C13.1784 10.3447 12.6024 10.7047 11.754 10.7047C10.9303 10.7177 10.1346 10.4061 9.53881 9.83712C9.47942 9.77921 9.39976 9.7468 9.31681 9.7468C9.23386 9.7468 9.1542 9.77921 9.09481 9.83712L8.44321 10.4731C8.41283 10.5024 8.38867 10.5376 8.37217 10.5764C8.35567 10.6153 8.34717 10.6571 8.34717 10.6993C8.34717 10.7415 8.35567 10.7833 8.37217 10.8222C8.38867 10.8611 8.41283 10.8962 8.44321 10.9255C8.97338 11.4257 9.62149 11.7836 10.3272 11.9659L10.152 12.7999C10.1425 12.8463 10.1433 12.8941 10.1543 12.9401C10.1653 12.9861 10.1862 13.0291 10.2156 13.0662C10.245 13.1032 10.2821 13.1334 10.3244 13.1546C10.3667 13.1757 10.4131 13.1874 10.4604 13.1887H11.64C11.713 13.1895 11.784 13.1652 11.8411 13.1197C11.8981 13.0742 11.9377 13.0104 11.9532 12.9391L12.1224 12.1399C13.986 12.0199 15.1224 11.0227 15.1224 9.55272C15.1224 8.20152 13.9848 7.63272 12.6024 7.16472C11.814 6.87912 11.1324 6.68472 11.1324 6.09792C11.1324 5.51112 11.7696 5.29752 12.4068 5.29752Z" fill="white"/>
</g>
<defs>
<linearGradient id="paint0_linear_2139_224385" x1="4" y1="8" x2="20" y2="8" gradientUnits="userSpaceOnUse">
<stop stop-color="#00C244"/>
<stop offset="1" stop-color="#00D64B"/>
</linearGradient>
<clipPath id="clip0_2139_224385">
<rect width="16" height="16" fill="white" transform="translate(4)"/>
</clipPath>
</defs>
</svg>
